<?xml version="1.0" encoding="UTF-8" standalone="no"?>
<svg
   xmlns:dc="http://purl.org/dc/elements/1.1/"
   xmlns:cc="http://creativecommons.org/ns#"
   xmlns:rdf="http://www.w3.org/1999/02/22-rdf-syntax-ns#"
   xmlns:svg="http://www.w3.org/2000/svg"
   xmlns="http://www.w3.org/2000/svg"
   xmlns:sodipodi="http://sodipodi.sourceforge.net/DTD/sodipodi-0.dtd"
   xmlns:inkscape="http://www.inkscape.org/namespaces/inkscape"
   inkscape:version="1.0 (4035a4fb49, 2020-05-01)"
   sodipodi:docname="escudo-actual.svg"
   viewBox="0 0 390.01807 536.89148"
   height="536.89148"
   width="390.01807"
   id="svg10"
   version="1.1">
  <metadata
     id="metadata16">
    <rdf:RDF>
      <cc:Work
         rdf:about="">
        <dc:format>image/svg+xml</dc:format>
        <dc:type
           rdf:resource="http://purl.org/dc/dcmitype/StillImage" />
        <dc:title></dc:title>
      </cc:Work>
    </rdf:RDF>
  </metadata>
  <defs
     id="defs14" />
  <sodipodi:namedview
     inkscape:current-layer="g18"
     inkscape:window-maximized="1"
     inkscape:window-y="-8"
     inkscape:window-x="-8"
     inkscape:cy="346.14934"
     inkscape:cx="129.08572"
     inkscape:zoom="0.35421178"
     showgrid="false"
     id="namedview12"
     inkscape:window-height="705"
     inkscape:window-width="1366"
     inkscape:pageshadow="2"
     inkscape:pageopacity="0"
     guidetolerance="10"
     gridtolerance="10"
     objecttolerance="10"
     borderopacity="1"
     bordercolor="#666666"
     pagecolor="#ffffff" />
  <g
     transform="translate(-51.90512,7.9851301)"
     id="g18"
     inkscape:label="Image"
     inkscape:groupmode="layer">
    <g
       transform="translate(51.903346,-7.9851301)"
       id="g22">
      <path
         id="path32"
         d="m 162,507.93396 c -14.75215,-0.90758 -50.66472,-5.8795 -67.117389,-9.29209 C 76.18965,494.7646 43.39735,485.13503 31.5,480.02934 l -11,-4.72059 0.227613,-7.40437 C 20.852801,463.83197 23.450853,420 26.501064,370.5 l 5.545837,-90 L 30.499715,255 C 27.824415,210.90697 18.101779,59.834981 17.451204,52.25 L 16.82936,45 H 94.180312 171.53126 L 183.5,33 c 6.58281,-6.6 12.65781,-12 13.5,-12 0.84219,0 6.91719,5.4 13.5,12 l 11.96874,12 h 75.36712 75.36712 l -0.616,6.75 c -0.3388,3.7125 -3.77282,55.93616 -7.63114,116.05258 l -7.01514,109.30258 6.05122,98.59252 c 3.32816,54.22589 5.929,98.66643 5.77964,98.75676 -4.84177,2.92813 -29.26525,11.69809 -44.65417,16.03437 -25.2656,7.11932 -37.78122,9.73697 -64.90106,13.5741 C 227.126,508.74479 195.46384,509.9927 162,507.93396 Z m 27.35975,-27.15478 0.67563,-20.22081 51.58373,-87.29371 C 272.36053,321.2418 292.97251,285.37075 292.6328,284.48548 292.13272,283.18229 276.47381,283 165.03138,283 40.251264,283 38,283.03417 38,284.92786 c 0,1.06032 -2.265889,39.83573 -5.035308,86.16759 -2.769419,46.33186 -4.906919,88.32682 -4.75,93.32215 L 28.5,473.5 l 10,3.25924 c 18.067123,5.88852 56.651103,15.17032 75.74553,18.22142 10.31004,1.64745 26.28504,3.48944 35.5,4.09332 9.21496,0.60389 16.94197,1.28428 17.17114,1.512 0.22916,0.22771 5.22059,0.41402 11.09205,0.41402 h 10.67539 z M 240.5,499.04703 c 28.47718,-2.09316 66.99349,-9.82522 108,-21.68077 15.13834,-4.3767 13.5,-2.03036 13.5,-19.33397 v -15.01058 l -41.98129,-0.26086 -41.9813,-0.26085 36.95614,-62 36.95613,-62 0.0252,-51.75 L 352,215 h -76 -76 v 29 29 h 54.91293 54.91293 l -54.87038,92.84873 -54.87039,92.84872 -0.70229,21.29689 -0.70229,21.29688 13.90975,-0.60757 C 220.24062,500.34948 232.8,499.613 240.5,499.04703 Z M 359.68621,425.75 c -0.33495,-5.0875 -1.61367,-29.1866 -2.8416,-53.55355 -2.01187,-39.92337 -2.3741,-44.02637 -3.66377,-41.5 -0.78714,1.54195 -2.00859,3.47855 -2.71434,4.30355 -0.70575,0.825 -14.1095,23.6625 -29.7861,50.75 L 292.17748,435 h 34.05886 34.05886 z M 190,244 V 215 H 146 102 V 135 55 H 63.5 C 29.7154,55 25,55.186209 25,56.520351 c 0,0.836193 1.812077,27.438699 4.026837,59.116679 3.816978,54.59468 9.966895,150.26363 9.971177,155.11297 L 39,273 H 114.5 190 Z M 355.43108,196.75 C 356.68724,179.77813 365,57.938663 365,56.499067 365,55.180262 355.9535,55 289.76879,55 H 214.53758 L 205.26879,45.76975 196,36.539501 186.73121,45.76975 177.46242,55 H 144.73121 112 v 75 75 h 121.41023 121.41023 z"
         style="fill:#f8f8f8" />
      <path
         id="path30"
         d="m 199.3828,479.99434 0.70229,-21.29689 54.87039,-92.84872 L 309.82586,273 H 254.91293 200 v -29 -29 h 76 76 l -0.0252,51.75 -0.0252,51.75 -36.95613,62 -36.95614,62 41.9813,0.26085 41.98129,0.26086 v 15.01058 c 0,17.30361 1.63834,14.95727 -13.5,19.33397 -52.98118,15.31759 -87.21088,21.19021 -135.90974,23.31739 l -13.90975,0.60757 0.70229,-21.29688 z M 38.998014,270.75 C 38.993732,265.90066 32.843815,170.23171 29.026837,115.63703 26.812077,83.95905 25,57.356544 25,56.520351 25,55.186209 29.7154,55 63.5,55 H 102 v 80 80 h 44 44 v 29 29 H 114.5 39 l -0.002,-2.25 z"
         style="fill:#00adee" />
      <path
         id="path28"
         d="M 112,130 V 55 h 32.73121 32.73121 L 186.73121,45.76975 196,36.539501 205.26879,45.76975 214.53758,55 h 75.23121 C 355.9535,55 365,55.180262 365,56.499067 365,57.938663 356.68724,179.77813 355.43108,196.75 L 354.82046,205 H 233.41023 112 Z"
         style="fill:#ee3f23" />
      <path
         id="path26"
         d="m 162,535.93396 c -14.90827,-0.91718 -50.73676,-5.89394 -67.5,-9.3761 C 71.726788,521.82728 42.757101,512.66298 26,504.8885 9.2950467,497.13821 2.7768868,492.66734 1.0781579,487.79436 -1.007473,481.81151 0.03098691,451.74041 5.1114737,371 l 5.1282833,-81.5 -1.6767605,-33 C 7.6407784,238.35 5.3376358,194.925 3.4449018,160 1.2241523,119.02241 0.00293463,87.178162 0.00178363,70.217881 -1.5705932e-4,41.621459 0.28722438,39.815955 5.6410115,34.788846 11.916439,28.896333 10.380862,29 91.388661,29 H 165.52587 L 180,14.5 C 187.96077,6.525 194.93577,0 195.5,0 c 0.56423,0 7.53923,6.525 15.5,14.5 L 225.47413,29 h 73.63721 c 80.45971,0 78.97527,-0.100802 85.24765,5.788846 5.323,4.998203 5.63927,6.921784 5.66075,34.429035 0.0138,17.728908 -1.51908,53.613479 -5.13103,120.112899 l -5.15078,94.83078 5.15246,83.16922 c 5.31706,85.8262 6.22516,115.06356 3.75729,120.97001 -2.15725,5.16303 -7.03327,8.03616 -29.76722,17.53995 -33.21862,13.88683 -57.95477,20.46089 -98.66413,26.22169 -33.08792,4.68228 -64.75076,5.93038 -98.21633,3.87153 z m 61.71633,-27.92291 c 17.18192,-1.05777 51.97719,-5.75515 69.40106,-9.36918 18.88147,-3.91637 51.48472,-13.51759 64.38261,-18.95983 6.6,-2.78485 12.1222,-5.13727 12.27156,-5.2276 0.14936,-0.0903 -2.45148,-44.53087 -5.77964,-98.75676 l -6.05122,-98.59252 7.01514,-109.30258 C 368.81416,107.68616 372.24818,55.4625 372.58698,51.75 l 0.616,-6.75 H 297.83586 222.46874 L 210.5,33 C 203.91719,26.4 197.84219,21 197,21 c -0.84219,0 -6.91719,5.4 -13.5,12 L 171.53126,45 H 94.180312 16.82936 l 0.621844,7.25 C 18.101779,59.834981 27.824415,210.90697 30.499715,255 l 1.547186,25.5 -5.545837,90 c -3.050211,49.5 -5.648263,93.33197 -5.773451,97.40438 L 20.5,475.30875 l 11,4.72059 c 11.89735,5.10569 44.68965,14.73526 63.382611,18.61253 16.452669,3.41259 52.365239,8.38451 67.117389,9.29209 18.17948,1.11843 44.27187,1.15102 61.71633,0.0771 z"
         style="fill:#6c6e70" />
      <path
         id="path24"
         d="m 166.91667,500.58598 c -0.22917,-0.22772 -7.95618,-0.90811 -17.17114,-1.512 -9.21496,-0.60388 -25.18996,-2.44587 -35.5,-4.09332 C 95.151103,491.92956 56.567123,482.64776 38.5,476.75924 L 28.5,473.5 28.214692,464.4176 c -0.156919,-4.99533 1.980581,-46.99029 4.75,-93.32215 C 35.734111,324.76359 38,285.98818 38,284.92786 38,283.03417 40.251264,283 165.03138,283 c 111.44243,0 127.10134,0.18229 127.60142,1.48548 0.33971,0.88527 -20.27227,36.75632 -51.01369,88.77918 l -51.58373,87.29371 -0.67563,20.22081 L 188.68411,501 h -10.67539 c -5.87146,0 -10.86289,-0.18631 -11.09205,-0.41402 z M 320.6804,385.75 c 15.6766,-27.0875 29.08035,-49.925 29.7861,-50.75 0.70575,-0.825 1.9272,-2.7616 2.71434,-4.30355 1.28967,-2.52637 1.6519,1.57663 3.66377,41.5 1.22793,24.36695 2.50665,48.46605 2.8416,53.55355 l 0.60899,9.25 h -34.05886 -34.05886 z"
         style="fill:#005aaa" />
    </g>
  </g>
</svg>
